# Blender v3.1.2 OBJ File: ''
# www.blender.org
mtllib provetta.mtl
o Cylinder
v 0.000000 -1.000000 -1.000000
v 0.195090 -1.000000 -0.980785
v 0.382683 -1.000000 -0.923880
v 0.555570 -1.000000 -0.831470
v 0.707107 -1.000000 -0.707107
v 0.831470 -1.000000 -0.555570
v 0.923880 -1.000000 -0.382683
v 0.980785 -1.000000 -0.195090
v 1.000000 -1.000000 0.000000
v 0.980785 -1.000000 0.195090
v 0.923880 -1.000000 0.382683
v 0.831470 -1.000000 0.555570
v 0.707107 -1.000000 0.707107
v 0.555570 -1.000000 0.831470
v 0.382683 -1.000000 0.923880
v 0.195090 -1.000000 0.980785
v -0.000000 -1.000000 1.000000
v -0.195090 -1.000000 0.980785
v -0.382683 -1.000000 0.923880
v -0.555570 -1.000000 0.831470
v -0.707107 -1.000000 0.707107
v -0.831469 -1.000000 0.555570
v -0.923880 -1.000000 0.382684
v -0.980785 -1.000000 0.195090
v -1.000000 -1.000000 -0.000000
v -0.980785 -1.000000 -0.195090
v -0.923879 -1.000000 -0.382684
v -0.831470 -1.000000 -0.555570
v -0.707107 -1.000000 -0.707107
v -0.555570 -1.000000 -0.831470
v -0.382683 -1.000000 -0.923880
v -0.195090 -1.000000 -0.980785
v 0.195090 0.994424 -0.980785
v 0.382683 0.994424 -0.923880
v 0.555570 0.994424 -0.831470
v 0.707107 0.994424 -0.707107
v 0.831470 0.994424 -0.555570
v 0.923880 0.994424 -0.382683
v 0.980785 0.994424 -0.195090
v 1.000000 0.994424 0.000000
v 0.980785 0.994424 0.195090
v 0.923880 0.994424 0.382683
v 0.831470 0.994424 0.555570
v 0.707107 0.994424 0.707107
v 0.555570 0.994424 0.831470
v 0.382683 0.994424 0.923880
v 0.195090 0.994424 0.980785
v -0.000000 0.994424 1.000000
v -0.195090 0.994424 0.980785
v -0.382683 0.994424 0.923880
v -0.555570 0.994424 0.831470
v -0.707107 0.994424 0.707107
v -0.831469 0.994424 0.555570
v -0.923880 0.994424 0.382684
v -0.980785 0.994424 0.195090
v -1.000000 0.994424 -0.000000
v -0.980785 0.994424 -0.195090
v -0.923879 0.994424 -0.382684
v -0.831470 0.994424 -0.555570
v -0.707107 0.994424 -0.707107
v -0.555570 0.994424 -0.831470
v -0.382683 0.994424 -0.923880
v -0.195090 0.994424 -0.980785
v 0.000000 0.994424 -1.000000
v -0.000000 1.800233 -0.611164
v 0.000000 1.689439 -0.722494
v 0.119232 1.800233 -0.599421
v 0.140952 1.689439 -0.708612
v 0.233882 1.800233 -0.564642
v 0.276487 1.689439 -0.667498
v 0.339544 1.800233 -0.508164
v 0.401396 1.689439 -0.600732
v 0.432158 1.800233 -0.432158
v 0.510881 1.689439 -0.510881
v 0.508164 1.800233 -0.339545
v 0.600732 1.689439 -0.401396
v 0.564642 1.800233 -0.233882
v 0.667498 1.689439 -0.276487
v 0.599421 1.800233 -0.119232
v 0.708612 1.689439 -0.140952
v 0.611164 1.800233 0.000000
v 0.722494 1.689439 0.000000
v 0.599421 1.800233 0.119232
v 0.708612 1.689439 0.140952
v 0.564642 1.800233 0.233882
v 0.667498 1.689439 0.276487
v 0.508164 1.800233 0.339544
v 0.600732 1.689439 0.401396
v 0.432158 1.800233 0.432158
v 0.510881 1.689439 0.510881
v 0.339544 1.800233 0.508164
v 0.401396 1.689439 0.600732
v 0.233882 1.800233 0.564642
v 0.276487 1.689439 0.667498
v 0.119232 1.800233 0.599421
v 0.140952 1.689439 0.708612
v -0.000000 1.800233 0.611164
v -0.000000 1.689439 0.722494
v -0.119232 1.800233 0.599421
v -0.140952 1.689439 0.708612
v -0.233882 1.800233 0.564642
v -0.276487 1.689439 0.667498
v -0.339544 1.800233 0.508164
v -0.401396 1.689439 0.600732
v -0.432158 1.800233 0.432158
v -0.510880 1.689439 0.510881
v -0.508164 1.800233 0.339545
v -0.600732 1.689439 0.401396
v -0.564642 1.800233 0.233882
v -0.667498 1.689439 0.276487
v -0.599421 1.800233 0.119232
v -0.708612 1.689439 0.140952
v -0.611164 1.800233 -0.000000
v -0.722494 1.689439 -0.000000
v -0.599421 1.800233 -0.119232
v -0.708612 1.689439 -0.140952
v -0.564642 1.800233 -0.233883
v -0.667498 1.689439 -0.276487
v -0.508164 1.800233 -0.339544
v -0.600732 1.689439 -0.401396
v -0.432158 1.800233 -0.432158
v -0.510881 1.689439 -0.510880
v -0.339545 1.800233 -0.508164
v -0.401396 1.689439 -0.600732
v -0.233882 1.800233 -0.564642
v -0.276487 1.689439 -0.667498
v -0.119232 1.800233 -0.599421
v -0.140952 1.689439 -0.708612
v 0.000000 1.643318 -0.722494
v 0.000000 1.421730 -0.722494
v 0.140952 1.421730 -0.708612
v 0.140952 1.643318 -0.708612
v 0.276487 1.421730 -0.667498
v 0.276487 1.643318 -0.667498
v 0.401396 1.421730 -0.600732
v 0.401396 1.643318 -0.600732
v 0.510881 1.421730 -0.510881
v 0.510881 1.643318 -0.510881
v 0.600732 1.421730 -0.401396
v 0.600732 1.643318 -0.401396
v 0.667498 1.421730 -0.276487
v 0.667498 1.643318 -0.276487
v 0.708612 1.421730 -0.140952
v 0.708612 1.643318 -0.140952
v 0.722494 1.421730 0.000000
v 0.722494 1.643318 0.000000
v 0.708612 1.421730 0.140952
v 0.708612 1.643318 0.140952
v 0.667498 1.421730 0.276487
v 0.667498 1.643318 0.276487
v 0.600732 1.421730 0.401396
v 0.600732 1.643318 0.401396
v 0.510881 1.421730 0.510881
v 0.510881 1.643318 0.510881
v 0.401396 1.421730 0.600732
v 0.401396 1.643318 0.600732
v 0.276487 1.421730 0.667498
v 0.276487 1.643318 0.667498
v 0.140952 1.421730 0.708612
v 0.140952 1.643318 0.708612
v -0.000000 1.421730 0.722494
v -0.000000 1.643318 0.722494
v -0.140952 1.421730 0.708612
v -0.140952 1.643318 0.708612
v -0.276487 1.421730 0.667498
v -0.276487 1.643318 0.667498
v -0.401396 1.421730 0.600732
v -0.401396 1.643318 0.600732
v -0.510880 1.421730 0.510881
v -0.510880 1.643318 0.510881
v -0.600732 1.421730 0.401396
v -0.600732 1.643318 0.401396
v -0.667498 1.421730 0.276487
v -0.667498 1.643318 0.276487
v -0.708612 1.421730 0.140952
v -0.708612 1.643318 0.140952
v -0.722494 1.421730 -0.000000
v -0.722494 1.643318 -0.000000
v -0.708612 1.421730 -0.140952
v -0.708612 1.643318 -0.140952
v -0.667498 1.421730 -0.276487
v -0.667498 1.643318 -0.276487
v -0.600732 1.421730 -0.401396
v -0.600732 1.643318 -0.401396
v -0.510881 1.421730 -0.510880
v -0.510881 1.643318 -0.510880
v -0.401396 1.421730 -0.600732
v -0.401396 1.643318 -0.600732
v -0.276487 1.421730 -0.667498
v -0.276487 1.643318 -0.667498
v -0.140952 1.421730 -0.708612
v -0.140952 1.643318 -0.708612
vt 0.281351 0.582990
vt 0.281353 0.583224
vt 0.280648 0.583220
vt 0.280647 0.582987
vt 0.279224 0.582996
vt 0.279226 0.583229
vt 0.278563 0.583241
vt 0.278561 0.583007
vt 0.277966 0.583256
vt 0.277964 0.583023
vt 0.277458 0.583276
vt 0.277456 0.583042
vt 0.258870 0.574517
vt 0.258870 0.574283
vt 0.259467 0.574297
vt 0.259467 0.574531
vt 0.260130 0.574307
vt 0.260130 0.574541
vt 0.260835 0.574312
vt 0.260835 0.574546
vt 0.261553 0.574312
vt 0.261553 0.574546
vt 0.262257 0.574307
vt 0.262257 0.574541
vt 0.262920 0.574297
vt 0.262920 0.574531
vt 0.263517 0.574283
vt 0.263517 0.574517
vt 0.514588 1.227161
vt 0.514621 1.231516
vt 0.503490 1.231282
vt 0.503458 1.226926
vt 0.491124 1.231132
vt 0.491092 1.226777
vt 0.477997 1.231074
vt 0.477965 1.226719
vt 0.464613 1.231109
vt 0.464581 1.226754
vt 0.451488 1.231237
vt 0.451455 1.226881
vt 0.439124 1.231451
vt 0.439092 1.227096
vt 0.427998 1.231745
vt 0.427966 1.227389
vt 0.418537 1.232106
vt 0.418505 1.227751
vt 0.259065 0.560237
vt 0.259065 0.560003
vt 0.259573 0.560021
vt 0.259573 0.560255
vt 0.260170 0.560035
vt 0.260170 0.560269
vt 0.260833 0.560045
vt 0.260833 0.560279
vt 0.261538 0.560050
vt 0.261538 0.560284
vt 0.262256 0.560050
vt 0.262256 0.560284
vt 0.262960 0.560045
vt 0.262960 0.560279
vt 0.263623 0.560035
vt 0.263623 0.560269
vt 0.264220 0.560021
vt 0.264220 0.560255
vt 0.264728 0.560003
vt 0.264728 0.560237
vt 0.282611 0.583011
vt 0.282613 0.583244
vt 0.282016 0.583232
vt 0.282014 0.582998
vt 0.279930 0.583222
vt 0.279928 0.582989
vt 0.280760 0.579649
vt 0.280638 0.581864
vt 0.279920 0.581866
vt 0.279766 0.579652
vt 0.266010 0.565982
vt 0.265816 0.565007
vt 0.265816 0.564013
vt 0.266010 0.563038
vt 0.266390 0.562120
vt 0.266942 0.561294
vt 0.267645 0.560591
vt 0.268471 0.560039
vt 0.269389 0.559658
vt 0.270364 0.559464
vt 0.271358 0.559464
vt 0.272333 0.559658
vt 0.273251 0.560039
vt 0.274077 0.560591
vt 0.274780 0.561294
vt 0.275332 0.562120
vt 0.275713 0.563038
vt 0.275907 0.564013
vt 0.275907 0.565007
vt 0.275713 0.565982
vt 0.275332 0.566900
vt 0.274780 0.567726
vt 0.274077 0.568429
vt 0.273251 0.568981
vt 0.272333 0.569362
vt 0.271358 0.569555
vt 0.270364 0.569555
vt 0.269389 0.569362
vt 0.268471 0.568981
vt 0.267645 0.568429
vt 0.266942 0.567726
vt 0.266390 0.566900
vt 0.279216 0.581873
vt 0.278791 0.579661
vt 0.282653 0.579664
vt 0.282006 0.581875
vt 0.281343 0.581867
vt 0.281735 0.579653
vt 0.283479 0.579682
vt 0.282603 0.581888
vt 0.265113 0.563581
vt 0.264220 0.561377
vt 0.264728 0.561359
vt 0.265816 0.563556
vt 0.264287 0.563601
vt 0.263623 0.561392
vt 0.263368 0.563614
vt 0.262960 0.561401
vt 0.262393 0.563621
vt 0.262256 0.561406
vt 0.261400 0.563621
vt 0.261538 0.561406
vt 0.260425 0.563614
vt 0.260833 0.561401
vt 0.259506 0.563601
vt 0.260170 0.561392
vt 0.258680 0.563581
vt 0.259573 0.561377
vt 0.257977 0.563556
vt 0.259065 0.561359
vt 0.061249 1.034650
vt 0.427811 1.206464
vt 0.418350 1.206825
vt -0.047275 1.038792
vt 0.188870 1.031283
vt 0.438937 1.206170
vt 0.330686 1.028822
vt 0.451301 1.205956
vt 0.481244 1.027361
vt 0.464427 1.205828
vt 0.634761 1.026956
vt 0.477810 1.205793
vt 0.785336 1.027624
vt 0.490937 1.205851
vt 0.927182 1.029337
vt 0.503304 1.206001
vt 1.054848 1.032031
vt 0.514434 1.206235
vt 0.263584 0.577863
vt 0.262920 0.575654
vt 0.263517 0.575639
vt 0.264410 0.577843
vt 0.262666 0.577876
vt 0.262257 0.575663
vt 0.261691 0.577883
vt 0.261553 0.575668
vt 0.260697 0.577883
vt 0.260835 0.575668
vt 0.259722 0.577876
vt 0.260130 0.575663
vt 0.258804 0.577863
vt 0.259467 0.575654
vt 0.257977 0.577843
vt 0.258870 0.575639
vt 0.277047 0.579699
vt 0.277956 0.581900
vt 0.277448 0.581920
vt 0.276344 0.579726
vt 0.277873 0.579677
vt 0.278553 0.581884
vt 0.280685 0.569544
vt 0.279691 0.569546
vt 0.278717 0.569556
vt 0.277798 0.569572
vt 0.276972 0.569594
vt 0.276269 0.569620
vt 0.257977 0.587948
vt 0.258804 0.587968
vt 0.259722 0.587981
vt 0.260697 0.587988
vt 0.261691 0.587988
vt 0.262666 0.587981
vt 0.263584 0.587968
vt 0.264410 0.587948
vt 1.043312 -0.003115
vt 0.915645 -0.005809
vt 0.773799 -0.007522
vt 0.623224 -0.008189
vt 0.469708 -0.007785
vt 0.319149 -0.006324
vt 0.177334 -0.003863
vt 0.049712 -0.000496
vt -0.058812 0.003646
vt 0.257977 0.573661
vt 0.258680 0.573686
vt 0.259506 0.573706
vt 0.260425 0.573719
vt 0.261400 0.573726
vt 0.262393 0.573726
vt 0.263368 0.573719
vt 0.264287 0.573706
vt 0.265113 0.573686
vt 0.265816 0.573661
vt 0.283405 0.569577
vt 0.282578 0.569559
vt 0.281660 0.569548
vt 0.280597 0.583802
vt 0.279990 0.583804
vt 0.279394 0.583809
vt 0.277685 0.559739
vt 0.278349 0.559464
vt 0.278512 0.560005
vt 0.277951 0.560237
vt 0.277088 0.560138
vt 0.277446 0.560574
vt 0.276580 0.560646
vt 0.277017 0.561004
vt 0.276181 0.561243
vt 0.276679 0.561509
vt 0.275907 0.561906
vt 0.276447 0.562070
vt 0.260294 0.573726
vt 0.260890 0.573731
vt 0.261497 0.573731
vt 0.262093 0.573726
vt 0.276181 0.564696
vt 0.275907 0.564033
vt 0.276447 0.563869
vt 0.276679 0.564430
vt 0.276580 0.565293
vt 0.277017 0.564935
vt 0.277088 0.565801
vt 0.277446 0.565365
vt 0.277685 0.566200
vt 0.277951 0.565702
vt 0.488150 1.241961
vt 0.477046 1.241912
vt 0.465725 1.241941
vt 0.454621 1.242049
vt 0.280475 0.566475
vt 0.279771 0.566615
vt 0.279716 0.566053
vt 0.280311 0.565935
vt 0.281139 0.566200
vt 0.280873 0.565702
vt 0.281736 0.565801
vt 0.281378 0.565365
vt 0.282243 0.565293
vt 0.281807 0.564935
vt 0.282642 0.564696
vt 0.282145 0.564430
vt 0.282917 0.564033
vt 0.282377 0.563869
vt 0.260997 0.559464
vt 0.261593 0.559469
vt 0.262200 0.559469
vt 0.262796 0.559464
vt 0.282642 0.561243
vt 0.282917 0.561906
vt 0.282377 0.562070
vt 0.282145 0.561509
vt 0.282243 0.560646
vt 0.281807 0.561004
vt 0.281736 0.560138
vt 0.281378 0.560574
vt 0.281139 0.559739
vt 0.280873 0.560237
vt 0.280475 0.559464
vt 0.280311 0.560005
vt 0.281193 0.583805
vt 0.279108 0.559886
vt 0.279716 0.559886
vt 0.282495 0.562666
vt 0.282495 0.563273
vt 0.279108 0.566053
vt 0.278512 0.565935
vt 0.276328 0.563273
vt 0.276328 0.562666
vn -0.1951 0.0000 -0.9808
vn -0.1808 0.3756 -0.9090
vn -0.0000 0.3756 -0.9268
vn -0.0000 0.0000 -1.0000
vn 0.3827 0.0000 -0.9239
vn 0.3547 0.3756 -0.8562
vn 0.5149 0.3756 -0.7706
vn 0.5556 0.0000 -0.8315
vn 0.6553 0.3756 -0.6553
vn 0.7071 0.0000 -0.7071
vn 0.7706 0.3756 -0.5149
vn 0.8315 0.0000 -0.5556
vn 0.8562 0.3756 -0.3547
vn 0.9239 0.0000 -0.3827
vn 0.9090 0.3756 -0.1808
vn 0.9808 0.0000 -0.1951
vn 0.9268 0.3756 0.0000
vn 1.0000 0.0000 0.0000
vn 0.9090 0.3756 0.1808
vn 0.9808 0.0000 0.1951
vn 0.8562 0.3756 0.3547
vn 0.9239 0.0000 0.3827
vn 0.7706 0.3756 0.5149
vn 0.8315 0.0000 0.5556
vn 0.6553 0.3756 0.6553
vn 0.7071 0.0000 0.7071
vn 0.5149 0.3756 0.7706
vn 0.5556 0.0000 0.8315
vn 0.3547 0.3756 0.8562
vn 0.3827 0.0000 0.9239
vn 0.1808 0.3756 0.9090
vn 0.1951 0.0000 0.9808
vn -0.0000 0.3756 0.9268
vn -0.0000 0.0000 1.0000
vn -0.1808 0.3756 0.9090
vn -0.1951 0.0000 0.9808
vn -0.3547 0.3756 0.8562
vn -0.3827 0.0000 0.9239
vn -0.5149 0.3756 0.7706
vn -0.5556 0.0000 0.8315
vn -0.6553 0.3756 0.6553
vn -0.7071 0.0000 0.7071
vn -0.7706 0.3756 0.5149
vn -0.8315 0.0000 0.5556
vn -0.8562 0.3756 0.3547
vn -0.9239 0.0000 0.3827
vn -0.9090 0.3756 0.1808
vn -0.9808 0.0000 0.1951
vn -0.9268 0.3756 -0.0000
vn -1.0000 0.0000 -0.0000
vn -0.9090 0.3756 -0.1808
vn -0.9808 0.0000 -0.1951
vn -0.8562 0.3756 -0.3547
vn -0.9239 0.0000 -0.3827
vn -0.7706 0.3756 -0.5149
vn -0.8315 0.0000 -0.5556
vn -0.6553 0.3756 -0.6553
vn -0.7071 0.0000 -0.7071
vn -0.5149 0.3756 -0.7706
vn -0.5556 0.0000 -0.8315
vn -0.3547 0.3756 -0.8562
vn -0.3827 0.0000 -0.9239
vn 0.1808 0.3756 -0.9090
vn 0.1951 0.0000 -0.9808
vn 0.0000 0.2793 -0.9602
vn 0.0000 0.2890 -0.9573
vn 0.1868 0.2890 -0.9389
vn 0.1873 0.2793 -0.9418
vn 0.0000 -0.6857 -0.7279
vn 0.1420 -0.6857 -0.7139
vn 0.2786 -0.6857 -0.6725
vn 0.4044 -0.6857 -0.6052
vn 0.5147 -0.6857 -0.5147
vn 0.6052 -0.6857 -0.4044
vn 0.6725 -0.6857 -0.2786
vn 0.7139 -0.6857 -0.1420
vn 0.7279 -0.6857 0.0000
vn 0.7139 -0.6857 0.1420
vn 0.6725 -0.6857 0.2786
vn 0.6052 -0.6857 0.4044
vn 0.5147 -0.6857 0.5147
vn 0.4044 -0.6857 0.6052
vn 0.2786 -0.6857 0.6725
vn 0.1420 -0.6857 0.7139
vn -0.0000 -0.6857 0.7279
vn -0.1420 -0.6857 0.7139
vn -0.2786 -0.6857 0.6725
vn -0.4044 -0.6857 0.6052
vn -0.5147 -0.6857 0.5147
vn -0.6052 -0.6857 0.4044
vn -0.6725 -0.6857 0.2786
vn -0.7139 -0.6857 0.1420
vn -0.7279 -0.6857 0.0000
vn -0.7139 -0.6857 -0.1420
vn -0.6725 -0.6857 -0.2786
vn -0.6052 -0.6857 -0.4044
vn -0.5147 -0.6857 -0.5147
vn -0.4044 -0.6857 -0.6052
vn -0.2786 -0.6857 -0.6725
vn -0.1420 -0.6857 -0.7139
vn 0.3664 0.2890 -0.8845
vn 0.3675 0.2793 -0.8871
vn -0.3675 0.2793 -0.8871
vn -0.3664 0.2890 -0.8845
vn -0.1868 0.2890 -0.9389
vn -0.1873 0.2793 -0.9418
vn -0.5335 0.2793 -0.7984
vn -0.5319 0.2890 -0.7960
vn -0.6790 0.2793 -0.6790
vn -0.6769 0.2890 -0.6769
vn -0.7984 0.2793 -0.5335
vn -0.7960 0.2890 -0.5319
vn -0.8871 0.2793 -0.3675
vn -0.8845 0.2890 -0.3664
vn -0.9418 0.2793 -0.1873
vn -0.9389 0.2890 -0.1868
vn -0.9602 0.2793 -0.0000
vn -0.9573 0.2890 -0.0000
vn -0.9418 0.2793 0.1873
vn -0.9389 0.2890 0.1868
vn -0.8871 0.2793 0.3675
vn -0.8845 0.2890 0.3664
vn -0.7984 0.2793 0.5335
vn -0.7960 0.2890 0.5319
vn -0.6790 0.2793 0.6790
vn -0.6769 0.2890 0.6769
vn -0.5335 0.2793 0.7984
vn -0.5319 0.2890 0.7960
vn -0.3675 0.2793 0.8871
vn -0.3664 0.2890 0.8845
vn -0.1873 0.2793 0.9418
vn -0.1868 0.2890 0.9389
vn -0.0000 0.2793 0.9602
vn -0.0000 0.2890 0.9573
vn 0.1873 0.2793 0.9418
vn 0.1868 0.2890 0.9389
vn 0.3675 0.2793 0.8871
vn 0.3664 0.2890 0.8845
vn 0.5335 0.2793 0.7984
vn 0.5319 0.2890 0.7960
vn 0.6790 0.2793 0.6790
vn 0.6769 0.2890 0.6769
vn 0.7984 0.2793 0.5335
vn 0.7960 0.2890 0.5319
vn 0.8871 0.2793 0.3675
vn 0.8845 0.2890 0.3664
vn 0.9418 0.2793 0.1873
vn 0.9389 0.2890 0.1868
vn 0.9602 0.2793 0.0000
vn 0.9573 0.2890 0.0000
vn 0.9418 0.2793 -0.1873
vn 0.9389 0.2890 -0.1868
vn 0.8871 0.2793 -0.3675
vn 0.8845 0.2890 -0.3664
vn 0.7984 0.2793 -0.5335
vn 0.7960 0.2890 -0.5319
vn 0.6790 0.2793 -0.6790
vn 0.6769 0.2890 -0.6769
vn 0.5335 0.2793 -0.7984
vn 0.5319 0.2890 -0.7960
vn -0.0000 0.9158 -0.4016
vn 0.0783 0.9158 -0.3939
vn 0.1537 0.9158 -0.3710
vn 0.2231 0.9158 -0.3339
vn 0.2840 0.9158 -0.2840
vn 0.3339 0.9158 -0.2231
vn 0.3710 0.9158 -0.1537
vn 0.3939 0.9158 -0.0783
vn 0.4016 0.9158 0.0000
vn 0.3939 0.9158 0.0783
vn 0.3710 0.9158 0.1537
vn 0.3339 0.9158 0.2231
vn 0.2840 0.9158 0.2840
vn 0.2231 0.9158 0.3339
vn 0.1537 0.9158 0.3710
vn 0.0783 0.9158 0.3939
vn 0.0000 0.9158 0.4016
vn -0.0783 0.9158 0.3939
vn -0.1537 0.9158 0.3710
vn -0.2231 0.9158 0.3339
vn -0.2840 0.9158 0.2840
vn -0.3339 0.9158 0.2231
vn -0.3710 0.9158 0.1537
vn -0.3939 0.9158 0.0783
vn -0.4016 0.9158 0.0000
vn -0.3939 0.9158 -0.0783
vn -0.3710 0.9158 -0.1537
vn -0.3339 0.9158 -0.2231
vn -0.2840 0.9158 -0.2840
vn -0.2231 0.9158 -0.3339
vn -0.1537 0.9158 -0.3710
vn -0.0783 0.9158 -0.3939
g Cylinder_Cylinder_Material.001
usemtl Material.001
s 1
f 192/1/1 128/2/2 66/3/3 129/4/4
f 134/5/5 70/6/6 72/7/7 136/8/8
f 136/8/8 72/7/7 74/9/9 138/10/10
f 138/10/10 74/9/9 76/11/11 140/12/12
f 140/13/12 76/14/11 78/15/13 142/16/14
f 142/16/14 78/15/13 80/17/15 144/18/16
f 144/18/16 80/17/15 82/19/17 146/20/18
f 146/20/18 82/19/17 84/21/19 148/22/20
f 148/22/20 84/21/19 86/23/21 150/24/22
f 150/24/22 86/23/21 88/25/23 152/26/24
f 152/26/24 88/25/23 90/27/25 154/28/26
f 154/29/26 90/30/25 92/31/27 156/32/28
f 156/32/28 92/31/27 94/33/29 158/34/30
f 158/34/30 94/33/29 96/35/31 160/36/32
f 160/36/32 96/35/31 98/37/33 162/38/34
f 162/38/34 98/37/33 100/39/35 164/40/36
f 164/40/36 100/39/35 102/41/37 166/42/38
f 166/42/38 102/41/37 104/43/39 168/44/40
f 168/44/40 104/43/39 106/45/41 170/46/42
f 170/47/42 106/48/41 108/49/43 172/50/44
f 172/50/44 108/49/43 110/51/45 174/52/46
f 174/52/46 110/51/45 112/53/47 176/54/48
f 176/54/48 112/53/47 114/55/49 178/56/50
f 178/56/50 114/55/49 116/57/51 180/58/52
f 180/58/52 116/57/51 118/59/53 182/60/54
f 182/60/54 118/59/53 120/61/55 184/62/56
f 184/62/56 120/61/55 122/63/57 186/64/58
f 186/64/58 122/63/57 124/65/59 188/66/60
f 188/67/60 124/68/59 126/69/61 190/70/62
f 190/70/62 126/69/61 128/2/2 192/1/1
f 129/4/4 66/3/3 68/71/63 132/72/64
f 64/73/65 130/74/66 131/75/67 33/76/68
f 132/72/64 68/71/63 70/6/6 134/5/5
f 1/77/69 2/78/70 3/79/71 4/80/72 5/81/73 6/82/74 7/83/75 8/84/76 9/85/77 10/86/78 11/87/79 12/88/80 13/89/81 14/90/82 15/91/83 16/92/84 17/93/85 18/94/86 19/95/87 20/96/88 21/97/89 22/98/90 23/99/91 24/100/92 25/101/93 26/102/94 27/103/95 28/104/96 29/105/97 30/106/98 31/107/99 32/108/100
f 33/76/68 131/75/67 133/109/101 34/110/102
f 62/111/103 189/112/104 191/113/105 63/114/106
f 61/115/107 187/116/108 189/112/104 62/111/103
f 60/117/109 185/118/110 187/119/108 61/120/107
f 59/121/111 183/122/112 185/118/110 60/117/109
f 58/123/113 181/124/114 183/122/112 59/121/111
f 57/125/115 179/126/116 181/124/114 58/123/113
f 56/127/117 177/128/118 179/126/116 57/125/115
f 55/129/119 175/130/120 177/128/118 56/127/117
f 54/131/121 173/132/122 175/130/120 55/129/119
f 53/133/123 171/134/124 173/132/122 54/131/121
f 52/135/125 169/136/126 171/134/124 53/133/123
f 51/137/127 167/138/128 169/139/126 52/140/125
f 50/141/129 165/142/130 167/138/128 51/137/127
f 49/143/131 163/144/132 165/142/130 50/141/129
f 48/145/133 161/146/134 163/144/132 49/143/131
f 47/147/135 159/148/136 161/146/134 48/145/133
f 46/149/137 157/150/138 159/148/136 47/147/135
f 45/151/139 155/152/140 157/150/138 46/149/137
f 44/153/141 153/154/142 155/152/140 45/151/139
f 43/155/143 151/156/144 153/157/142 44/158/141
f 42/159/145 149/160/146 151/156/144 43/155/143
f 41/161/147 147/162/148 149/160/146 42/159/145
f 40/163/149 145/164/150 147/162/148 41/161/147
f 39/165/151 143/166/152 145/164/150 40/163/149
f 38/167/153 141/168/154 143/166/152 39/165/151
f 37/169/155 139/170/156 141/168/154 38/167/153
f 36/171/157 137/172/158 139/173/156 37/174/155
f 35/175/159 135/176/160 137/172/158 36/171/157
f 34/110/102 133/109/101 135/176/160 35/175/159
f 63/114/106 191/113/105 130/74/66 64/73/65
f 1/177/69 64/73/65 33/76/68 2/178/70
f 2/178/70 33/76/68 34/110/102 3/179/71
f 3/179/71 34/110/102 35/175/159 4/180/72
f 4/180/72 35/175/159 36/171/157 5/181/73
f 5/181/73 36/171/157 37/174/155 6/182/74
f 6/183/74 37/169/155 38/167/153 7/184/75
f 7/184/75 38/167/153 39/165/151 8/185/76
f 8/185/76 39/165/151 40/163/149 9/186/77
f 9/186/77 40/163/149 41/161/147 10/187/78
f 10/187/78 41/161/147 42/159/145 11/188/79
f 11/188/79 42/159/145 43/155/143 12/189/80
f 12/189/80 43/155/143 44/158/141 13/190/81
f 13/191/81 44/153/141 45/151/139 14/192/82
f 14/192/82 45/151/139 46/149/137 15/193/83
f 15/193/83 46/149/137 47/147/135 16/194/84
f 16/194/84 47/147/135 48/145/133 17/195/85
f 17/195/85 48/145/133 49/143/131 18/196/86
f 18/196/86 49/143/131 50/141/129 19/197/87
f 19/197/87 50/141/129 51/137/127 20/198/88
f 20/198/88 51/137/127 52/140/125 21/199/89
f 21/200/89 52/135/125 53/133/123 22/201/90
f 22/201/90 53/133/123 54/131/121 23/202/91
f 23/202/91 54/131/121 55/129/119 24/203/92
f 24/203/92 55/129/119 56/127/117 25/204/93
f 25/204/93 56/127/117 57/125/115 26/205/94
f 26/205/94 57/125/115 58/123/113 27/206/95
f 27/206/95 58/123/113 59/121/111 28/207/96
f 28/207/96 59/121/111 60/117/109 29/208/97
f 29/208/97 60/117/109 61/120/107 30/209/98
f 30/210/98 61/115/107 62/111/103 31/211/99
f 31/211/99 62/111/103 63/114/106 32/212/100
f 32/212/100 63/114/106 64/73/65 1/177/69
f 68/71/63 66/3/3 65/213/161 67/214/162
f 70/6/6 68/71/63 67/214/162 69/215/163
f 72/216/7 70/217/6 69/218/163 71/219/164
f 74/220/9 72/216/7 71/219/164 73/221/165
f 76/222/11 74/220/9 73/221/165 75/223/166
f 78/224/13 76/222/11 75/223/166 77/225/167
f 80/226/15 78/224/13 77/225/167 79/227/168
f 82/19/17 80/17/15 79/228/168 81/229/169
f 84/21/19 82/19/17 81/229/169 83/230/170
f 86/23/21 84/21/19 83/230/170 85/231/171
f 88/232/23 86/233/21 85/234/171 87/235/172
f 90/236/25 88/232/23 87/235/172 89/237/173
f 92/238/27 90/236/25 89/237/173 91/239/174
f 94/240/29 92/238/27 91/239/174 93/241/175
f 96/35/31 94/33/29 93/242/175 95/243/176
f 98/37/33 96/35/31 95/243/176 97/244/177
f 100/39/35 98/37/33 97/244/177 99/245/178
f 102/246/37 100/247/35 99/248/178 101/249/179
f 104/250/39 102/246/37 101/249/179 103/251/180
f 106/252/41 104/250/39 103/251/180 105/253/181
f 108/254/43 106/252/41 105/253/181 107/255/182
f 110/256/45 108/254/43 107/255/182 109/257/183
f 112/258/47 110/256/45 109/257/183 111/259/184
f 114/55/49 112/53/47 111/260/184 113/261/185
f 116/57/51 114/55/49 113/261/185 115/262/186
f 118/59/53 116/57/51 115/262/186 117/263/187
f 120/264/55 118/265/53 117/266/187 119/267/188
f 122/268/57 120/264/55 119/267/188 121/269/189
f 124/270/59 122/268/57 121/269/189 123/271/190
f 126/272/61 124/270/59 123/271/190 125/273/191
f 128/274/2 126/272/61 125/273/191 127/275/192
f 66/3/3 128/2/2 127/276/192 65/213/161
f 192/1/1 129/4/4 130/74/66 191/113/105
f 190/70/62 192/1/1 191/113/105 189/112/104
f 188/67/60 190/70/62 189/112/104 187/116/108
f 186/64/58 188/66/60 187/119/108 185/118/110
f 184/62/56 186/64/58 185/118/110 183/122/112
f 182/60/54 184/62/56 183/122/112 181/124/114
f 180/58/52 182/60/54 181/124/114 179/126/116
f 178/56/50 180/58/52 179/126/116 177/128/118
f 176/54/48 178/56/50 177/128/118 175/130/120
f 174/52/46 176/54/48 175/130/120 173/132/122
f 172/50/44 174/52/46 173/132/122 171/134/124
f 170/47/42 172/50/44 171/134/124 169/136/126
f 168/44/40 170/46/42 169/139/126 167/138/128
f 166/42/38 168/44/40 167/138/128 165/142/130
f 164/40/36 166/42/38 165/142/130 163/144/132
f 162/38/34 164/40/36 163/144/132 161/146/134
f 160/36/32 162/38/34 161/146/134 159/148/136
f 158/34/30 160/36/32 159/148/136 157/150/138
f 156/32/28 158/34/30 157/150/138 155/152/140
f 154/29/26 156/32/28 155/152/140 153/154/142
f 152/26/24 154/28/26 153/157/142 151/156/144
f 150/24/22 152/26/24 151/156/144 149/160/146
f 148/22/20 150/24/22 149/160/146 147/162/148
f 146/20/18 148/22/20 147/162/148 145/164/150
f 144/18/16 146/20/18 145/164/150 143/166/152
f 142/16/14 144/18/16 143/166/152 141/168/154
f 140/13/12 142/16/14 141/168/154 139/170/156
f 138/10/10 140/12/12 139/173/156 137/172/158
f 136/8/8 138/10/10 137/172/158 135/176/160
f 134/5/5 136/8/8 135/176/160 133/109/101
f 132/72/64 134/5/5 133/109/101 131/75/67
f 129/4/4 132/72/64 131/75/67 130/74/66
f 67/277/162 65/278/161 127/275/192 125/273/191 123/271/190 121/269/189 119/267/188 117/266/187 115/279/186 113/280/185 111/259/184 109/257/183 107/255/182 105/253/181 103/251/180 101/249/179 99/248/178 97/281/177 95/282/176 93/241/175 91/239/174 89/237/173 87/235/172 85/234/171 83/283/170 81/284/169 79/227/168 77/225/167 75/223/166 73/221/165 71/219/164 69/218/163
